<?xml version="1.0" encoding="UTF-8" standalone="no"?>
<svg
   xmlns:dc="http://purl.org/dc/elements/1.1/"
   xmlns:cc="http://creativecommons.org/ns#"
   xmlns:rdf="http://www.w3.org/1999/02/22-rdf-syntax-ns#"
   xmlns:svg="http://www.w3.org/2000/svg"
   xmlns="http://www.w3.org/2000/svg"
   xmlns:sodipodi="http://sodipodi.sourceforge.net/DTD/sodipodi-0.dtd"
   xmlns:inkscape="http://www.inkscape.org/namespaces/inkscape"
   sodipodi:docname="logo.svg"
   inkscape:version="1.0 (4035a4f, 2020-05-01)"
   id="svg885"
   version="1.1"
   viewBox="0 0 210 297"
   height="297mm"
   width="210mm">
  <defs
     id="defs879">
    <inkscape:path-effect
       update_on_knot_move="true"
       attempt_force_join="true"
       miter_limit="4.3"
       offset="0.37051037"
       unit="mm"
       linejoin_type="miter"
       lpeversion="1"
       is_visible="true"
       id="path-effect1718"
       effect="offset" />
    <inkscape:path-effect
       effect="offset"
       id="path-effect1680"
       is_visible="true"
       lpeversion="1"
       linejoin_type="miter"
       unit="mm"
       offset="0.092740407"
       miter_limit="4.3"
       attempt_force_join="true"
       update_on_knot_move="true" />
    <inkscape:path-effect
       update_on_knot_move="true"
       attempt_force_join="true"
       miter_limit="4.3"
       offset="0.8"
       unit="mm"
       linejoin_type="miter"
       lpeversion="1"
       is_visible="true"
       id="path-effect1661"
       effect="offset" />
    <inkscape:path-effect
       only_selected="false"
       apply_with_weight="true"
       apply_no_weight="true"
       helper_size="0"
       steps="2"
       weight="33.333333"
       lpeversion="1"
       is_visible="true"
       id="path-effect1644"
       effect="bspline" />
    <inkscape:path-effect
       hide_knot="false"
       vertical="false"
       scale_y_rel="false"
       prop_scale="1"
       bendpath="m 140.72108,266.79669 h 11.30751"
       lpeversion="1"
       is_visible="true"
       id="path-effect1642"
       effect="bend_path" />
    <inkscape:path-effect
       lpeversion="1"
       is_visible="true"
       id="path-effect1640"
       effect="spiro" />
  </defs>
  <sodipodi:namedview
     inkscape:window-maximized="0"
     inkscape:window-y="271"
     inkscape:window-x="2560"
     inkscape:window-height="1021"
     inkscape:window-width="1080"
     showgrid="false"
     inkscape:document-rotation="0"
     inkscape:current-layer="layer1"
     inkscape:document-units="mm"
     inkscape:cy="475.65564"
     inkscape:cx="423.08394"
     inkscape:zoom="0.72426347"
     inkscape:pageshadow="2"
     inkscape:pageopacity="0.0"
     borderopacity="1.0"
     bordercolor="#666666"
     pagecolor="#ffffff"
     id="base" />
  <metadata
     id="metadata882">
    <rdf:RDF>
      <cc:Work
         rdf:about="">
        <dc:format>image/svg+xml</dc:format>
        <dc:type
           rdf:resource="http://purl.org/dc/dcmitype/StillImage" />
        <dc:title></dc:title>
      </cc:Work>
    </rdf:RDF>
  </metadata>
  <g
     id="layer1"
     inkscape:groupmode="layer"
     inkscape:label="Layer 1">
    <path
       sodipodi:nodetypes="ccsssscsssssssssssssscssssssssssscssscsssscccssscssssssssssssssssssssssscssssssssssssssssscsssssssss"
       id="path1613"
       d="m 52.209215,290.60312 v -15.08085 l -1.30541,0.66369 c -2.54838,1.29566 -6.37824,1.68307 -9.771729,0.98848 -0.962438,-0.19699 -1.822759,-0.42822 -1.911824,-0.51383 -0.08906,-0.0856 0.483148,-0.86735 1.271585,-1.73722 l 1.433521,-1.58156 -2.406722,-0.91928 c -8.680156,-3.31551 -14.228405,-9.20241 -17.11992,-18.1649 -1.209354,-3.7485 -1.609902,-6.92696 -1.432075,-11.36397 0.375925,-9.37986 -2.969512,-20.88947 -8.566902,-29.47348 -1.79103,-2.74668 -5.404302,-7.12668 -8.867989,-10.74975 -0.6267,-0.65554 -1.079391,-1.19189 -1.005975,-1.19189 0.966261,0 15.199254,3.09412 21.305062,4.63152 2.684595,0.67596 4.950174,1.16189 5.034624,1.07983 0.08445,-0.0821 0.628454,-1.27297 1.208905,-2.64649 1.218973,-2.88444 4.673772,-10.01119 5.161738,-10.64791 0.317029,-0.41367 0.518596,-0.33546 4.827045,1.87297 2.472909,1.26757 4.625146,2.30467 4.782736,2.30467 0.1576,0 1.5642,-1.40473 3.12579,-3.12162 1.56158,-1.71689 4.37647,-4.64945 6.25531,-6.5168 l 3.416072,-3.39517 0.60389,0.55734 c 0.84847,0.78307 6.42983,7.40314 8.60551,10.20702 0.99892,1.28734 1.96946,2.5259 2.15676,2.75236 0.32527,0.39329 0.41178,0.3766 1.92973,-0.37231 1.71839,-0.84781 7.71623,-3.51622 7.90347,-3.51622 0.18568,0 2.28333,5.50384 3.56918,9.36486 0.9858,2.96008 1.26581,3.57568 1.62641,3.57568 0.23959,0 1.63004,-0.30045 3.08989,-0.66767 6.02352,-1.51518 24.020493,-5.15401 24.279693,-4.90915 0.0318,0.03 -1.39847,1.41633 -3.17838,3.08062 -3.96486,3.70731 -4.97383,4.72379 -6.42142,6.46917 -8.174533,9.8562 -12.353693,20.95822 -12.364203,32.84573 -0.003,2.98243 -0.32957,5.21741 -1.25954,8.61025 -1.55966,5.6902 -3.88414,9.68167 -7.86193,13.50006 -2.87688,2.76159 -5.94756,4.65751 -9.91671,6.12283 l -1.66868,0.61604 1.65402,1.66514 c 1.15201,1.15974 1.55512,1.70129 1.32814,1.78426 -0.17924,0.0655 -1.07324,0.27391 -1.98668,0.46309 -3.50242,0.72537 -7.57143,0.22671 -10.18474,-1.24815 l -1.20852,-0.68205 0.0111,16.29113 c -1.04529,1.78798 -6.142428,1.12464 -6.140832,-0.94647 z m 8.903542,-21.92003 c 1.7129,-0.24332 3.73652,-0.60362 4.49693,-0.80066 7.47079,-1.93588 12.60875,-5.94771 15.42551,-12.04459 1.70504,-3.69055 2.42805,-7.32441 2.62664,-13.20144 0.0751,-2.22142 0.27765,-5.12421 0.45021,-6.45065 0.97098,-7.4638 4.46189,-16.37618 8.98463,-22.93789 0.8432,-1.22334 1.07168,-1.78013 0.73049,-1.78013 -0.75799,0 -18.48255,4.53166 -22.77471,5.82284 -10.28777,3.09479 -15.35855,4.88685 -22.702702,8.02332 -3.02923,1.29369 -10.277506,4.9184 -12.227493,6.1147 -5.265785,3.23052 -8.319952,6.62593 -9.021289,10.02924 -0.670324,3.25279 0.52019,10.42518 2.39421,14.42424 2.445459,5.21847 6.594562,8.93978 12.384301,11.10742 5.459601,2.04403 12.439621,2.65866 19.233273,1.6936 z M 30.276204,228.40737 c 3.569731,-2.68666 9.593844,-5.9825 15.178961,-8.30454 0.9677,-0.40233 1.75945,-0.80757 1.75945,-0.90053 0,-0.31111 -9.078479,-3.08135 -17.935131,-5.4728 -1.935404,-0.52259 -4.591622,-1.24049 -5.902701,-1.59534 -3.04333,-0.82368 -5.49176,-1.38006 -5.599414,-1.27241 -0.04622,0.0462 0.27935,0.68675 0.723479,1.42339 2.741322,4.54685 5.793357,12.11949 6.936126,17.20975 0.249635,1.11195 0.509088,2.11106 0.576567,2.22024 0.06748,0.10918 0.667234,-0.29917 1.332796,-0.90746 0.66556,-0.60828 1.984,-1.68842 2.929867,-2.4003 z M 59.195097,214.8977 c 4.08402,-1.35517 9.52256,-3.01357 16.22698,-4.94818 1.81617,-0.52407 2.21297,-0.71729 2.21351,-1.0779 7.9e-4,-0.48632 -1.7728,-5.81434 -2.02805,-6.09265 -0.0884,-0.0964 -1.20417,0.33779 -2.47946,0.96487 -1.2753,0.62707 -2.36176,1.14012 -2.41436,1.14012 -0.16942,0 -10.12072,5.22687 -10.97846,5.76638 -0.45581,0.2867 -1.59496,0.96319 -2.53145,1.50331 -4.597802,2.65178 -4.468242,2.48543 -2.50214,3.21272 1.43079,0.52926 1.51127,0.52087 4.49343,-0.46867 z m -11.783982,-3.74087 c 0.82841,-0.54559 1.9404,-1.26201 2.47107,-1.59203 0.53068,-0.33003 0.96487,-0.69219 0.96487,-0.80482 0,-0.11262 -0.43419,-0.45181 -0.96487,-0.75375 -0.53067,-0.30194 -1.9354,-1.11121 -3.12162,-1.79837 -1.18621,-0.68717 -3.62305,-2.04697 -5.415195,-3.02179 -2.593647,-1.4108 -3.299156,-1.70789 -3.458006,-1.45617 -0.700506,1.11002 -3.146663,7.108 -2.94875,7.23032 0.128654,0.0795 1.74298,0.58403 3.587393,1.12115 1.844413,0.53713 4.068612,1.21953 4.942668,1.51645 0.87405,0.29692 1.77977,0.54236 2.01271,0.54543 0.23294,0.003 1.10132,-0.44082 1.92973,-0.98642 z m 10.144582,-6.03363 c 0.20901,-0.20817 2.20286,-1.28976 4.5292,-2.45694 1.7495,-0.87776 1.77024,-0.90762 1.19793,-1.72405 -0.9788,-1.39629 -5.71059,-7.18257 -5.87363,-7.18257 -0.17886,0 -5.743622,5.82809 -6.568682,6.87952 -0.2746,0.34996 -0.46209,0.67331 -0.41664,0.71858 0.26902,0.26789 6.481482,3.96098 6.677772,3.96969 0.13111,0.006 0.33543,-0.0861 0.45405,-0.20423 z"
       style="opacity:0.98;fill:#f22727;fill-opacity:1;fill-rule:evenodd;stroke:none;stroke-width:1.48873;stroke-linecap:round;stroke-linejoin:round;stroke-miterlimit:4;stroke-dasharray:none" />
    <path
       inkscape:export-ydpi="117.77817"
       inkscape:export-xdpi="117.77817"
       inkscape:path-effect="#path-effect1680"
       inkscape:original-d="m 99.613934,104.02847 v -0.75232 l -0.0488,0.0331 c -0.0954,0.0646 -0.23882,0.084 -0.36588,0.0493 -0.036,-0.01 -0.0682,-0.0214 -0.0716,-0.0256 -0.003,-0.004 0.0181,-0.0433 0.0476,-0.0867 l 0.0537,-0.0789 -0.0901,-0.0459 c -0.32501,-0.16539 -0.53274,-0.45906 -0.64102,-0.90618 -0.0453,-0.187 -0.0603,-0.34557 -0.0536,-0.5669 0.014,-0.46794 -0.11119,-1.04211 -0.32077,-1.47034 -0.0671,-0.13702 -0.20236,-0.355527 -0.33205,-0.536267 -0.0235,-0.0327 -0.0404,-0.0594 -0.0377,-0.0594 0.0361,0 0.56911,0.15435 0.79773,0.23105 0.10052,0.0337 0.18535,0.0579 0.1885,0.0538 0.003,-0.003 0.0236,-0.0635 0.0453,-0.13202 0.0456,-0.14388 0.175,-0.49942 0.19327,-0.53118 0.0119,-0.0206 0.0194,-0.0167 0.18074,0.0934 0.0926,0.0632 0.17318,0.11497 0.17908,0.11497 0.006,0 0.0585,-0.07 0.11704,-0.15572 0.0585,-0.0856 0.16386,-0.23194 0.23421,-0.3251 l 0.12791,-0.16938 0.0226,0.0277 c 0.0318,0.0391 0.240746,0.36932 0.322216,0.50919 0.0374,0.0642 0.0738,0.126 0.0808,0.13731 0.0121,0.0196 0.0154,0.0187 0.0722,-0.0186 0.0644,-0.0423 0.28892,-0.17541 0.29592,-0.17541 0.007,0 0.0855,0.27456 0.13365,0.46718 0.0369,0.14766 0.0474,0.17838 0.0609,0.17838 0.009,0 0.061,-0.015 0.1157,-0.0333 0.22553,-0.0756 0.89939,-0.25712 0.90909,-0.2449 0.002,0.002 -0.0523,0.0706 -0.119,0.15368 -0.14847,0.18495 -0.18624,0.23566 -0.24044,0.322727 -0.30607,0.49168 -0.46256,1.04553 -0.46295,1.63855 -1.1e-4,0.14879 -0.0123,0.26028 -0.0471,0.42954 -0.0584,0.28386 -0.14544,0.48299 -0.29438,0.67348 -0.10772,0.13776 -0.22269,0.23234 -0.37131,0.30544 l -0.0625,0.0308 0.0619,0.0831 c 0.0432,0.0578 0.0583,0.0848 0.0498,0.089 -0.007,0.003 -0.0401,0.0137 -0.0744,0.0231 -0.13114,0.0361 -0.283486,0.0113 -0.381346,-0.0623 l -0.0452,-0.034 4.6e-4,0.8127 c -0.0392,0.0892 -0.22998,0.0561 -0.22992,-0.0472 z m 0.33337,-1.09351 c 0.0641,-0.0121 0.139896,-0.0301 0.168376,-0.04 0.27972,-0.0966 0.47211,-0.29671 0.57757,-0.60086 0.0639,-0.18411 0.0909,-0.36539 0.0983,-0.65857 0.003,-0.11082 0.0104,-0.25564 0.0168,-0.32181 0.0364,-0.37234 0.16706,-0.81694 0.3364,-1.14428 0.0316,-0.061 0.0401,-0.0888 0.0274,-0.0888 -0.0283,0 -0.69204,0.22607 -0.85275,0.29049 -0.385196,0.15439 -0.575066,0.24378 -0.850046,0.40026 -0.11343,0.0646 -0.38482,0.24536 -0.45783,0.30503 -0.19717,0.16116 -0.31153,0.33055 -0.33779,0.50033 -0.025,0.16227 0.0194,0.52007 0.0897,0.71958 0.0916,0.26033 0.24691,0.44597 0.4637,0.5541 0.20442,0.10197 0.46577,0.13263 0.72015,0.0845 z m -1.1546,-2.00922 c 0.13365,-0.13403 0.35921,-0.29845 0.56834,-0.41429 0.0362,-0.0201 0.0659,-0.0403 0.0659,-0.0449 0,-0.0155 -0.33991,-0.15372 -0.67154,-0.27303 -0.0725,-0.0261 -0.17192,-0.0619 -0.22101,-0.0796 -0.11394,-0.0411 -0.20563,-0.0688 -0.20966,-0.0634 -0.002,0.003 0.0105,0.0342 0.027,0.071 0.10264,0.22683 0.21692,0.60459 0.25971,0.85853 0.009,0.0555 0.0191,0.10532 0.0216,0.11077 0.003,0.005 0.0251,-0.0149 0.0499,-0.0453 0.0249,-0.0303 0.0743,-0.0842 0.1097,-0.11974 z m 1.0828,-0.67394 c 0.152906,-0.0676 0.356546,-0.15035 0.607576,-0.24685 0.068,-0.0262 0.0829,-0.0358 0.0829,-0.0537 3e-5,-0.0243 -0.0664,-0.29006 -0.0759,-0.30393 -0.003,-0.004 -0.0451,0.0168 -0.0928,0.0482 -0.0478,0.0313 -0.0884,0.0568 -0.0904,0.0568 -0.006,0 -0.378946,0.260747 -0.411066,0.287667 -0.0171,0.0143 -0.0597,0.0481 -0.0948,0.075 -0.17215,0.13229 -0.16729,0.12399 -0.0937,0.16027 0.0536,0.0264 0.0566,0.026 0.16825,-0.0234 z m -0.44123,-0.18663 c 0.031,-0.0272 0.0727,-0.0629 0.0925,-0.0794 0.0198,-0.0165 0.0361,-0.0345 0.0361,-0.0401 0,-0.005 -0.0162,-0.0225 -0.0361,-0.0376 -0.0198,-0.0151 -0.0725,-0.0555 -0.11688,-0.0897 -0.0444,-0.0343 -0.13566,-0.10212 -0.20276,-0.15075 -0.0971,-0.0704 -0.12353,-0.0852 -0.12947,-0.0726 -0.0263,0.0554 -0.11783,0.3546 -0.11042,0.3607 0.004,0.003 0.0653,0.0291 0.13433,0.0559 0.0691,0.0268 0.15234,0.0608 0.18507,0.0757 0.0328,0.0148 0.0666,0.027 0.0754,0.0272 0.009,1.1e-4 0.0413,-0.022 0.0722,-0.0492 z m 0.37984,-0.300987 c 0.008,-0.0104 0.0825,-0.0644 0.16959,-0.12257 0.0655,-0.0438 0.0663,-0.0453 0.0448,-0.086 -0.0366,-0.0697 -0.213816,-0.35832 -0.219916,-0.35832 -0.007,0 -0.21507,0.29075 -0.24596,0.3432 -0.0103,0.0174 -0.0173,0.0336 -0.0156,0.0358 0.0101,0.0134 0.24269,0.1976 0.25003,0.19804 0.004,2.2e-4 0.0126,-0.004 0.017,-0.0101 z"
       sodipodi:nodetypes="ccsssscsssssssssssssscssssssssssscssscsssscccssscssssssssssssssssssssssscssssssssssssssssscsssssssss"
       id="path1613-0-1"
       d="M 99.816406,98.609375 99.615234,98.875 c -0.0709,0.09389 -0.176961,0.241256 -0.236328,0.328125 -0.02241,0.03282 -0.04451,0.06323 -0.0625,0.08789 -0.03024,-0.01981 -0.06147,-0.04161 -0.103515,-0.07031 -0.162781,-0.111083 -0.247484,-0.180384 -0.314453,-0.06445 -0.01827,0.03176 -0.155566,0.406882 -0.201172,0.550781 -0.006,0.01883 -0.01028,0.03236 -0.01563,0.04883 -0.02916,-0.0089 -0.06422,-0.01873 -0.101563,-0.03125 -0.228977,-0.07682 -0.773612,-0.234375 -0.826172,-0.234375 -0.192006,0 -0.06332,0.173274 -0.03906,0.207032 0.128324,0.178836 0.259432,0.389184 0.324218,0.521484 0.203572,0.41595 0.326079,0.97387 0.3125,1.42773 -0.007,0.23007 0.0089,0.39275 0.05664,0.58985 0.113514,0.46873 0.331645,0.78571 0.6875,0.96679 h 0.002 c -0.03148,0.0452 -0.093,0.12089 -0.04297,0.1875 0.02672,0.033 0.08158,0.0482 0.11914,0.0586 0.117592,0.0321 0.238703,-0.007 0.347656,-0.0508 v 0.63086 c -1.17e-4,0.20172 0.325728,0.26721 0.40625,0.084 l 0.0078,-0.0176 v -0.70703 c 0.112773,0.0492 0.238473,0.0938 0.359373,0.0605 0.0359,-0.01 0.0678,-0.0197 0.0898,-0.0293 0.11119,-0.0549 0.0296,-0.16992 -0.0156,-0.23047 0.14359,-0.0768 0.26216,-0.16786 0.36914,-0.30468 0.15955,-0.20406 0.2536,-0.41516 0.31445,-0.71094 0.036,-0.17492 0.0468,-0.29302 0.0469,-0.44922 3.8e-4,-0.57573 0.15274,-1.11357 0.44922,-1.58984 0.0517,-0.083 0.0864,-0.12822 0.23437,-0.312504 0.0602,-0.07495 0.10626,-0.130522 0.125,-0.16211 0.002,-0.0033 0.0418,-0.04917 -0.0117,-0.111328 -0.0397,-0.04161 -0.0923,-0.03167 -0.10546,-0.0293 -0.13122,0.02374 -0.69101,0.178515 -0.89844,0.248047 -0.0203,0.0068 -0.0194,0.0072 -0.0332,0.01172 -0.007,-0.02429 -0.013,-0.04406 -0.0254,-0.09375 -0.0436,-0.174561 -0.10902,-0.408148 -0.13281,-0.46875 -0.003,-0.0067 0.0319,-0.06641 -0.0898,-0.06641 -0.0411,-6e-6 -0.24659,0.126505 -0.32617,0.177734 -0.015,-0.02564 -0.022,-0.04014 -0.043,-0.07617 -0.0828,-0.142197 -0.281228,-0.459483 -0.330081,-0.519531 z m 2.080074,0.939453 c 0.002,0.0023 0.004,-7.64e-4 0.006,0.002 l -0.006,-0.0078 c 0.003,0.0034 -0.003,0.0026 0,0.0059 z m -2.093746,-0.191406 c 0.0087,0.01385 0.01618,0.02611 0.02539,0.04102 0.04231,0.06846 0.07927,0.130378 0.101563,0.169921 -0.0569,0.03806 -0.08999,0.06478 -0.126954,0.09375 -0.02115,-0.01618 -0.04598,-0.03395 -0.07227,-0.05469 -0.01557,-0.01228 -0.03792,-0.03167 -0.06445,-0.05273 0.02228,-0.03374 0.05728,-0.08575 0.103515,-0.150391 0.012,-0.01678 0.02197,-0.03139 0.0332,-0.04687 z m -0.03516,0.330078 c -0.0042,0.0039 -0.01875,0.01253 -0.02148,0.01563 l 0.0039,-0.0059 0.0039,-0.0039 0.0039,-0.002 0.002,-0.002 c 0,0 0.0055,-0.0014 0.0078,-0.002 z m -0.636719,0.03906 c 0.0074,0.0053 0.01286,0.0094 0.02148,0.01563 0.06684,0.04844 0.15783,0.116908 0.201172,0.15039 0.02813,0.02168 0.04971,0.03788 0.07422,0.05664 -0.01936,0.0159 -0.03607,0.02859 -0.05469,0.04492 -0.0054,0.0047 -0.01233,0.0094 -0.01758,0.01367 -0.0021,0.002 -0.0039,0.004 -0.0059,0.006 -8.99e-4,7.2e-4 -0.0011,0.001 -0.002,0.002 -0.0054,-0.003 -0.0045,-0.004 -0.02148,-0.0117 -0.03532,-0.01608 -0.121611,-0.05106 -0.191406,-0.07813 -0.03699,-0.01436 -0.0412,-0.01597 -0.06055,-0.02344 0.007,-0.02477 0.01391,-0.04935 0.02344,-0.08008 0.01289,-0.04159 0.02135,-0.0612 0.0332,-0.0957 z m 1.302731,0.05469 c 0.0137,0.05749 0.0231,0.09645 0.0312,0.130859 -0.005,0.002 -0.01,0.0056 -0.0156,0.0078 -0.21315,0.08194 -0.37346,0.149278 -0.517579,0.210938 0.0077,-0.006 0.02062,-0.0175 0.02539,-0.0215 0.0078,-0.007 0.261029,-0.187115 0.359379,-0.253911 0.002,-0.0017 0.006,-0.0024 0.008,-0.0039 0.002,-0.0014 0.004,-0.0027 0.006,-0.0039 0.002,-0.0011 0.002,-0.0029 0.004,-0.0039 0.001,-9.1e-4 0.003,-0.0011 0.004,-0.002 0.001,-7.38e-4 0.003,-0.0013 0.004,-0.002 0,0 0.002,-0.002 0.002,-0.002 0,0 0.002,-0.002 0.002,-0.002 l -0.0391,0.0078 c 0.0348,0 0.0828,-0.03302 0.12695,-0.0625 z m -1.966793,0.4082 c 0.01291,0.004 0.02336,0.007 0.03711,0.0117 0.04881,0.0176 0.147973,0.0539 0.220703,0.0801 0.164871,0.0593 0.331653,0.12278 0.457032,0.17383 0.02554,0.0104 0.04297,0.0183 0.06445,0.0273 -0.190953,0.11423 -0.397502,0.25458 -0.519532,0.37696 -0.013,0.013 -0.02599,0.0289 -0.04102,0.0449 -0.04344,-0.22435 -0.131931,-0.49893 -0.21875,-0.71485 z m 2.568363,0.0293 c -0.15472,0.3272 -0.28384,0.73275 -0.31836,1.08594 -0.007,0.0688 -0.0145,0.21594 -0.0176,0.32812 -0.007,0.28746 -0.0344,0.45986 -0.0937,0.63086 -0.0962,0.27758 -0.27244,0.45696 -0.52149,0.54297 -0.0219,0.008 -0.09234,0.0254 -0.154292,0.0371 -0.236731,0.0448 -0.477709,0.0158 -0.66211,-0.0762 -0.192138,-0.0958 -0.331478,-0.2617 -0.416016,-0.50196 -0.06655,-0.18885 -0.1081,-0.53192 -0.08594,-0.67578 0.02161,-0.13971 0.118167,-0.28895 0.304687,-0.4414 0.065,-0.0531 0.334663,-0.23497 0.44336,-0.29688 0.270686,-0.15403 0.459068,-0.24113 0.841798,-0.39453 0.12885,-0.0517 0.52251,-0.18529 0.67969,-0.23828 z"
       style="opacity:0.98;fill:#f22727;fill-opacity:1;fill-rule:evenodd;stroke:none;stroke-width:0.0643418;stroke-linecap:round;stroke-linejoin:round;stroke-miterlimit:4;stroke-dasharray:none" />
    <path
       style="opacity:0.98;fill:#f22727;fill-opacity:1;fill-rule:evenodd;stroke:none;stroke-width:0.257054;stroke-linecap:round;stroke-linejoin:round;stroke-miterlimit:4;stroke-dasharray:none"
       d="m 58.263672,95.121094 -0.792969,1.052734 c -0.283699,0.375683 -0.710538,0.966105 -0.947265,1.3125 -0.08873,0.129921 -0.172617,0.247943 -0.244141,0.345703 -0.122422,-0.07956 -0.253493,-0.164993 -0.423828,-0.28125 -0.650224,-0.443721 -0.987394,-0.710049 -1.251953,-0.251953 -0.07299,0.126889 -0.622484,1.622372 -0.804688,2.197266 -0.02407,0.07601 -0.04272,0.133426 -0.06445,0.199218 -0.114985,-0.03465 -0.250336,-0.0773 -0.398437,-0.126953 C 52.421166,99.261466 50.241562,98.625 50.03125,98.625 c -0.781271,0 -0.246407,0.692575 -0.150391,0.826172 0.512433,0.714148 1.035883,1.558938 1.294922,2.087888 0.813407,1.66202 1.296431,3.88612 1.242188,5.69922 -0.02778,0.91765 0.03533,1.57582 0.226562,2.36524 0.453421,1.87229 1.326626,3.13647 2.75,3.86132 -0.125738,0.18166 -0.361441,0.48511 -0.171875,0.73828 l 0.0039,0.006 0.0059,0.004 c 0.11165,0.13786 0.328562,0.18541 0.476562,0.22656 0.466567,0.12742 0.94643,-0.021 1.382813,-0.19336 v 2.51368 c -4.67e-4,0.80547 1.309309,1.06763 1.630859,0.33593 l 0.03125,-0.0703 -0.002,-2.82227 c 0.45072,0.19615 0.946927,0.37313 1.429688,0.24024 0.143473,-0.0394 0.275305,-0.0811 0.345703,-0.11133 l 0.0078,-0.004 0.0098,-0.004 c 0.459547,-0.22709 0.113433,-0.67216 -0.06445,-0.91016 l -0.0039,-0.006 c 0.576928,-0.30797 1.053768,-0.6686 1.482422,-1.21679 0.637718,-0.81563 1.005062,-1.66464 1.248047,-2.84571 0.143475,-0.69772 0.196806,-1.16561 0.197266,-1.79101 0.0015,-2.3001 0.608405,-4.4467 1.792969,-6.34961 0.206264,-0.33136 0.344534,-0.51572 0.935546,-1.251955 0.240455,-0.299503 0.425214,-0.521926 0.5,-0.648437 0.0079,-0.01335 0.160391,-0.19106 -0.05078,-0.4375 -0.158146,-0.160905 -0.364016,-0.128452 -0.416015,-0.119141 -0.524865,0.09398 -2.768246,0.706355 -3.597657,0.984375 -0.07971,0.02668 -0.07625,0.02492 -0.130859,0.04297 -0.02746,-0.0967 -0.04915,-0.167245 -0.09766,-0.361329 -0.174411,-0.697727 -0.435659,-1.638751 -0.53125,-1.880859 -0.01062,-0.0269 0.124934,-0.265625 -0.361328,-0.265625 -0.16373,0 -0.977989,0.507539 -1.296875,0.712891 -0.06048,-0.102898 -0.0926,-0.157994 -0.175782,-0.300781 -0.331094,-0.568435 -1.122865,-1.838825 -1.322265,-2.083985 z m 8.318359,3.746094 c 0.01039,0.01057 0.01738,-0.0047 0.02734,0.0078 l -0.0293,-0.03125 c 0.01363,0.01363 -0.0093,0.01028 0.002,0.02344 z m -8.365234,-0.765626 c 0.03435,0.05526 0.06504,0.102632 0.101562,0.16211 0.166276,0.270782 0.308166,0.513685 0.398438,0.673828 -0.231073,0.154875 -0.364202,0.264389 -0.507813,0.378906 -0.08335,-0.06412 -0.178707,-0.137481 -0.28125,-0.21875 -0.06271,-0.0497 -0.155645,-0.124369 -0.261718,-0.208984 0.08794,-0.133327 0.233857,-0.347566 0.419922,-0.607422 0.04674,-0.06528 0.08702,-0.11928 0.130859,-0.179688 z m -0.158203,1.328126 c -0.01526,0.01461 -0.08174,0.05586 -0.08984,0.06641 l 0.01172,-0.01367 0.01563,-0.01758 0.01367,-0.01172 0.01172,-0.0078 0.0098,-0.0059 0.0078,-0.0059 c 0,0 0.01568,-0.003 0.01953,-0.0039 z m -2.527344,0.144531 c 0.03017,0.02158 0.05463,0.03892 0.08984,0.06445 0.266348,0.193033 0.624633,0.459178 0.798828,0.593748 0.113318,0.0873 0.200607,0.15392 0.298828,0.22852 -0.07682,0.0656 -0.146208,0.12385 -0.21875,0.1875 -0.0208,0.0183 -0.0423,0.0345 -0.0625,0.0508 -0.0081,0.007 -0.01573,0.0135 -0.02344,0.0195 -0.0023,0.002 -0.0036,0.004 -0.0059,0.006 -0.02269,-0.0117 -0.02775,-0.0164 -0.09961,-0.0488 -0.141253,-0.0643 -0.479118,-0.20245 -0.757813,-0.31055 -0.144412,-0.0561 -0.161435,-0.0633 -0.240234,-0.0937 0.02771,-0.0987 0.05643,-0.20036 0.09375,-0.322261 0.05039,-0.164581 0.08036,-0.237762 0.126953,-0.375 z m 5.201172,0.214843 c 0.05471,0.231158 0.09479,0.393258 0.126953,0.529298 -0.0177,0.007 -0.03594,0.0135 -0.05664,0.0215 -0.850414,0.32692 -1.493176,0.59323 -2.068359,0.83985 0.02629,-0.0214 0.07488,-0.0581 0.0918,-0.0723 0.0305,-0.0256 1.051371,-0.74839 1.445312,-1.01562 0.0098,-0.007 0.01838,-0.0135 0.02734,-0.0195 0.0081,-0.005 0.01605,-0.0107 0.02344,-0.0156 0.0066,-0.004 0.01347,-0.008 0.01953,-0.0117 0.0055,-0.004 0.01069,-0.008 0.01563,-0.0117 0.0044,-0.003 0.0077,-0.005 0.01172,-0.008 0.0036,-0.002 0.0066,-0.004 0.0098,-0.006 0.0029,-0.002 0.0072,-0.004 0.0098,-0.006 l -0.158203,0.0332 c 0.138012,0 0.327032,-0.141035 0.501953,-0.257818 z m -7.845703,1.632818 c 0.04912,0.0172 0.08648,0.028 0.138672,0.0469 0.197038,0.071 0.593631,0.21426 0.882812,0.31836 0.658659,0.23696 1.322021,0.49154 1.822266,0.69531 0.10276,0.0419 0.173504,0.0729 0.259765,0.10938 -0.763008,0.45635 -1.582735,1.0208 -2.070312,1.50976 -0.05334,0.0536 -0.106385,0.1175 -0.167969,0.1836 -0.172712,-0.89577 -0.517891,-1.99904 -0.865234,-2.86328 z m 10.251953,0.125 c -0.616564,1.30593 -1.135733,2.92339 -1.273438,4.33203 -0.02676,0.2768 -0.05626,0.86345 -0.06836,1.31054 -0.02897,1.14774 -0.133404,1.8347 -0.371094,2.51953 -0.384723,1.10956 -1.086343,1.8287 -2.080078,2.17188 -0.08391,0.0292 -0.369861,0.0995 -0.619141,0.14648 -0.947043,0.17919 -1.906739,0.0604 -2.642578,-0.30664 -0.767044,-0.38259 -1.332381,-1.04461 -1.669922,-2.0039 -0.265866,-0.75452 -0.430403,-2.12019 -0.341796,-2.69532 0.08637,-0.55839 0.473953,-1.16076 1.21875,-1.76953 0.259628,-0.21219 1.343123,-0.93629 1.777343,-1.18359 1.081708,-0.61556 1.822537,-0.96333 3.351563,-1.57617 0.514065,-0.20607 2.088083,-0.73311 2.71875,-0.94531 z"
       id="path1613-0-1-0"
       sodipodi:nodetypes="ccsssscsssssssssssssscssssssssssscssscsssscccssscssssssssssssssssssssssscssssssssssssssssscsssssssss"
       inkscape:original-d="m 57.462615,116.75938 v -3.00562 l -0.194962,0.13224 c -0.381135,0.25809 -0.954121,0.33559 -1.461742,0.19696 -0.143823,-0.04 -0.272468,-0.0855 -0.28605,-0.10227 -0.01198,-0.016 0.07231,-0.17299 0.190169,-0.34638 l 0.214537,-0.31522 -0.359961,-0.18337 c -1.298459,-0.66076 -2.128365,-1.83401 -2.560963,-3.62031 -0.180977,-0.74709 -0.240906,-1.3806 -0.214138,-2.26484 0.05593,-1.86949 -0.444217,-4.16337 -1.281516,-5.87421 -0.268077,-0.54741 -0.808458,-1.420388 -1.326585,-2.142471 -0.09389,-0.130638 -0.161403,-0.237312 -0.150619,-0.237312 0.144225,0 2.27367,0.616652 3.187042,0.923076 0.401588,0.134637 0.740493,0.231317 0.753082,0.214937 0.01198,-0.012 0.09428,-0.253687 0.180977,-0.527437 0.18218,-0.574819 0.699149,-1.995246 0.772139,-2.122135 0.04753,-0.0823 0.07751,-0.06672 0.722083,0.373145 0.369949,0.252496 0.691875,0.459321 0.715447,0.459321 0.02396,0 0.233717,-0.279656 0.467594,-0.622121 0.233712,-0.341983 0.654641,-0.926632 0.9357,-1.298818 l 0.511017,-0.676696 0.09029,0.110666 c 0.127048,0.156208 0.961832,1.475484 1.287313,2.03428 0.149416,0.256488 0.29484,0.503391 0.322806,0.548574 0.04833,0.07831 0.06153,0.07471 0.288452,-0.07431 0.257283,-0.168995 1.154273,-0.700789 1.182239,-0.700789 0.02799,0 0.341585,1.096904 0.533948,1.866448 0.147422,0.589922 0.189369,0.712652 0.243303,0.712652 0.03594,0 0.243705,-0.0599 0.462239,-0.13304 0.901022,-0.302028 3.593185,-1.027229 3.631935,-0.978406 0.008,0.008 -0.208943,0.282057 -0.47542,0.613972 -0.593155,0.738904 -0.744053,0.941494 -0.960588,1.289354 -1.222795,1.96433 -1.847993,4.17703 -1.84955,6.54623 -4.37e-4,0.59443 -0.04912,1.03985 -0.188171,1.71606 -0.233314,1.13406 -0.581049,1.92961 -1.176089,2.69065 -0.430356,0.55037 -0.889672,0.92822 -1.483429,1.22027 l -0.249697,0.12305 0.247295,0.332 c 0.17259,0.23091 0.232917,0.33878 0.19896,0.35556 -0.02799,0.012 -0.160205,0.0547 -0.297236,0.0923 -0.523924,0.14422 -1.132582,0.0451 -1.523546,-0.2489 l -0.18058,-0.13583 0.002,3.24684 c -0.15661,0.35637 -0.918801,0.22413 -0.918562,-0.18857 z m 1.33186,-4.36872 c 0.256085,-0.0483 0.558915,-0.12025 0.672699,-0.1598 1.117517,-0.38593 1.886141,-1.1854 2.307468,-2.40052 0.25529,-0.73554 0.363157,-1.45978 0.392724,-2.63107 0.01198,-0.44274 0.04156,-1.02132 0.06712,-1.28567 0.145419,-1.48755 0.667424,-3.26379 1.343961,-4.57156 0.126248,-0.2437 0.160205,-0.35477 0.109468,-0.35477 -0.113062,0 -2.764795,0.90318 -3.406853,1.16055 -1.538924,0.61681 -2.29748,0.97393 -3.396065,1.59909 -0.453166,0.25809 -1.537407,0.98025 -1.82909,1.21864 -0.787721,0.64385 -1.244605,1.32059 -1.349515,1.99888 -0.09988,0.6483 0.0775,2.07775 0.35836,2.87482 0.365956,1.04005 0.986442,1.78171 1.852547,2.21371 0.816686,0.40738 1.86081,0.52987 2.877093,0.33758 z m -4.612783,-8.0271 c 0.533947,-0.53547 1.435093,-1.19235 2.270592,-1.65514 0.144624,-0.0803 0.26328,-0.16101 0.26328,-0.17938 0,-0.0619 -1.357987,-0.61414 -2.682891,-1.0908 -0.28965,-0.10427 -0.686844,-0.24729 -0.882965,-0.31801 -0.455204,-0.1642 -0.821518,-0.27486 -0.837622,-0.25329 -0.008,0.012 0.04196,0.13664 0.107873,0.28366 0.41006,0.90621 0.866622,2.41541 1.037576,3.42994 0.03595,0.22173 0.07631,0.42076 0.08629,0.44254 0.01198,0.02 0.100275,-0.0595 0.199352,-0.18098 0.09948,-0.12105 0.296839,-0.33639 0.438271,-0.47838 z m 4.325932,-2.69248 c 0.610895,-0.27007 1.424464,-0.60067 2.427363,-0.9862 0.271666,-0.10467 0.331193,-0.14302 0.331193,-0.21453 1.2e-4,-0.0971 -0.265273,-1.158837 -0.303227,-1.214248 -0.01198,-0.01596 -0.180182,0.06712 -0.370749,0.192567 -0.190971,0.125044 -0.353169,0.226921 -0.361159,0.226921 -0.02396,0 -1.51396,1.04173 -1.642281,1.14928 -0.06832,0.0571 -0.238511,0.19217 -0.378739,0.29964 -0.687763,0.52851 -0.668349,0.49536 -0.374344,0.6403 0.214139,0.10547 0.226126,0.10387 0.672182,-0.0935 z m -1.762777,-0.74561 c 0.123852,-0.10867 0.290451,-0.25129 0.369551,-0.31721 0.07911,-0.0659 0.144226,-0.13784 0.144226,-0.16021 0,-0.02 -0.06472,-0.0899 -0.144226,-0.15021 -0.0791,-0.0603 -0.289644,-0.22174 -0.466952,-0.358369 -0.177383,-0.137032 -0.541977,-0.407983 -0.810054,-0.602269 -0.387927,-0.281258 -0.493517,-0.340382 -0.517247,-0.290043 -0.105073,0.221328 -0.470746,1.416671 -0.441144,1.441041 0.01596,0.012 0.260883,0.11626 0.536666,0.22333 0.276062,0.10707 0.608618,0.24291 0.739381,0.30243 0.13104,0.0591 0.266073,0.10787 0.301234,0.10867 0.03594,4.4e-4 0.164997,-0.0879 0.288446,-0.19656 z m 1.517516,-1.202494 c 0.03197,-0.04156 0.329597,-0.257289 0.677531,-0.489684 0.261684,-0.174986 0.264881,-0.180982 0.178983,-0.343583 -0.146219,-0.278459 -0.854237,-1.431539 -0.878609,-1.431539 -0.02799,0 -0.859234,1.161587 -0.982643,1.371132 -0.04117,0.06951 -0.06912,0.134237 -0.06233,0.143027 0.04037,0.05354 0.969582,0.789436 0.998906,0.791196 0.01596,9.95e-4 0.05034,-0.01596 0.06791,-0.04037 z"
       inkscape:path-effect="#path-effect1718"
       inkscape:export-xdpi="117.77817"
       inkscape:export-ydpi="117.77817" />
  </g>
</svg>
